<?xml version="1.0" encoding="UTF-8"?>
<svg width="346px" height="115px" viewBox="0 0 346 115" version="1.1" xmlns="http://www.w3.org/2000/svg" xmlns:xlink="http://www.w3.org/1999/xlink">
    <!-- Generator: Sketch 61.2 (89653) - https://sketch.com -->
    <title>Group 8</title>
    <desc>Created with Sketch.</desc>
    <g id="Page-1" stroke="none" stroke-width="1" fill="none" fill-rule="evenodd">
        <g id="Group-8" transform="translate(0.000000, -0.005000)" fill="#FFFFFF" fill-rule="nonzero">
            <path d="M142.2,54.445 C142.11551,52.3971664 142.516415,50.3583718 143.37,48.495 C144.080675,47.0838989 145.145376,45.8813728 146.46,45.005 C147.750633,44.1675251 149.195579,43.5963463 150.71,43.325 C152.259282,43.03042 153.832962,42.8830967 155.41,42.8848281 C156.929424,42.8807809 158.448071,42.95421 159.96,43.105 C160.711411,43.1031534 161.458021,43.2247731 162.17,43.465 L162.17,102.205 C162.223404,104.250545 161.883937,106.287345 161.17,108.205 C160.622604,109.658841 159.714067,110.949376 158.53,111.955 C157.367573,112.900772 155.996278,113.555565 154.53,113.865 C152.793192,114.222596 151.023142,114.393567 149.25,114.375 C147.683333,114.375 146.213333,114.325 144.84,114.225 C143.941977,114.222293 143.05036,114.07369 142.2,113.785 L142.2,54.445 Z" id="Path"></path>
            <path d="M297.63,95.855 C297.63,103.588333 298.756667,109.218333 301.01,112.745 C299.416873,113.377564 297.770296,113.866182 296.09,114.205 C294.518439,114.509912 292.920857,114.660627 291.32,114.655 C287.786667,114.655 285.12,113.968333 283.32,112.595 C281.464728,111.14882 280.230878,109.049486 279.87,106.725 C277.432641,109.172008 274.537667,111.115583 271.35,112.445 C267.254823,114.122417 262.853554,114.922958 258.43,114.795 C255.749566,114.791539 253.081962,114.42487 250.5,113.705 C247.893298,112.985673 245.451322,111.766384 243.31,110.115 C241.054914,108.334406 239.244037,106.054549 238.02,103.455 C236.575095,100.261413 235.883951,96.778324 236,93.275 C236,88.3083333 237.2,84.2583333 239.6,81.125 C241.996061,78.0064731 245.074846,75.4784485 248.6,73.735 C252.299337,71.9067779 256.254156,70.6491928 260.33,70.005 C264.171513,69.3666596 268.043281,68.9260791 271.93,68.685 C273.11,68.595 274.26,68.535 275.38,68.535 L278.54,68.535 L278.54,65.865 C278.54,62.105 277.54,59.435 275.54,57.865 C273.54,56.295 270.28,55.485 265.77,55.485 C261.926946,55.4183156 258.109174,56.1186371 254.54,57.545 C251.244691,58.9233194 248.032571,60.4926504 244.92,62.245 C243.550326,60.5839194 242.437917,58.7265335 241.62,56.735 C240.93904,55.3283346 240.515681,53.8110177 240.37,52.255 C240.480025,50.6461471 241.315202,49.1744694 242.64,48.255 C244.525695,46.7785648 246.635772,45.6138021 248.89,44.805 C251.838992,43.6905015 254.885525,42.853542 257.99,42.305 C261.575482,41.6425146 265.213829,41.3078001 268.86,41.305 C273.390746,41.2426454 277.907915,41.814865 282.28,43.005 C285.648411,43.8990523 288.741361,45.6173581 291.28,48.005 C293.629098,50.3442089 295.325267,53.2573439 296.2,56.455 C297.240857,60.3067688 297.735688,64.2856153 297.67,68.275 L297.63,95.855 Z M278.83,78.855 L276.78,78.855 C276.090613,78.855 275.402146,78.9053408 274.72,79.005 C272.273333,79.205 269.85,79.4983333 267.45,79.885 C265.225195,80.2190247 263.070049,80.9148871 261.07,81.945 C259.281852,82.858881 257.723102,84.1646762 256.51,85.765 C255.281892,87.518195 254.663544,89.6261998 254.75,91.765 C254.669947,94.3044403 255.503813,96.7882976 257.1,98.765 C258.66,100.675 261.31,101.635188 265.03,101.635188 C266.819678,101.643019 268.60122,101.393806 270.32,100.895 C271.865837,100.458963 273.345834,99.8165098 274.72,98.985 C275.863387,98.3114678 276.878957,97.4414628 277.72,96.415 C278.367327,95.7077515 278.755186,94.801573 278.82,93.845 L278.83,78.855 Z" id="Shape"></path>
            <path d="M61.642533,95.855 C61.642533,103.588333 62.7691997,109.218333 65.022533,112.745 C63.4294056,113.377564 61.7828289,113.866182 60.102533,114.205 C58.5309717,114.509912 56.9333904,114.660627 55.332533,114.655 C51.7991997,114.655 49.132533,113.968333 47.332533,112.595 C45.4772614,111.14882 44.2434113,109.049486 43.882533,106.725 C41.4451738,109.172008 38.5501998,111.115583 35.362533,112.445 C31.2673562,114.122417 26.8660868,114.922958 22.442533,114.795 C19.7620988,114.791539 17.0944948,114.42487 14.512533,113.705 C11.9058308,112.985673 9.46385489,111.766384 7.32253299,110.115 C5.06744745,108.334406 3.25657001,106.054549 2.03253299,103.455 C0.587627907,100.261413 -0.103515556,96.778324 0.0125329852,93.275 C0.0125329852,88.3083333 1.21253299,84.2583333 3.61253299,81.125 C6.00859439,78.0064731 9.08737941,75.4784485 12.612533,73.735 C16.3118701,71.9067779 20.2666887,70.6491928 24.342533,70.005 C28.1840459,69.3666596 32.0558144,68.9260791 35.942533,68.685 C37.122533,68.595 38.272533,68.535 39.392533,68.535 L42.552533,68.535 L42.552533,65.865 C42.552533,62.105 41.552533,59.435 39.552533,57.865 C37.552533,56.295 34.292533,55.485 29.782533,55.485 C25.9394788,55.4183156 22.1217068,56.1186371 18.552533,57.545 C15.2572239,58.9233194 12.0451038,60.4926504 8.93253299,62.245 C7.56285944,60.5839194 6.45045046,58.7265335 5.63253299,56.735 C4.9515729,55.3283346 4.5282144,53.8110177 4.38253299,52.255 C4.49255813,50.6461471 5.32773519,49.1744694 6.65253299,48.255 C8.53822759,46.7785648 10.648305,45.6138021 12.902533,44.805 C15.8515253,43.6905015 18.8980581,42.853542 22.002533,42.305 C25.5880154,41.6425146 29.226362,41.3078001 32.872533,41.305 C37.4032791,41.2426454 41.920448,41.814865 46.292533,43.005 C49.6609438,43.8990523 52.7538942,45.6173581 55.292533,48.005 C57.6416314,50.3442089 59.3378,53.2573439 60.212533,56.455 C61.2533896,60.3067688 61.7482207,64.2856153 61.682533,68.275 L61.642533,95.855 Z M42.842533,78.855 L40.792533,78.855 C40.1031458,78.855 39.4146787,78.9053408 38.732533,79.005 C36.2858663,79.205 33.862533,79.4983333 31.462533,79.885 C29.2377284,80.2190247 27.0825818,80.9148871 25.082533,81.945 C23.2943849,82.858881 21.7356346,84.1646762 20.522533,85.765 C19.2944255,87.518195 18.6760774,89.6261998 18.762533,91.765 C18.6824795,94.3044403 19.5163459,96.7882976 21.112533,98.765 C22.672533,100.675 25.322533,101.635188 29.042533,101.635188 C30.8322107,101.643019 32.6137533,101.393806 34.332533,100.895 C35.8783704,100.458963 37.3583665,99.8165098 38.732533,98.985 C39.8759199,98.3114678 40.8914899,97.4414628 41.732533,96.415 C42.3798602,95.7077515 42.7677187,94.801573 42.832533,93.845 L42.842533,78.855 Z" id="Shape"></path>
            <path d="M138.86,44.815 C137.406494,44.227295 135.904013,43.7688543 134.37,43.445 C132.500937,43.0378027 130.592887,42.8360943 128.68,42.845 C126.863831,42.7920293 125.055305,43.1013824 123.36,43.755 C121.925921,44.3407728 120.663398,45.2799247 119.69,46.485 C118.621652,47.8137725 117.761802,49.2974338 117.14,50.885 C116.367759,52.7667002 115.700075,54.6896309 115.14,56.645 L103.81,86.225 L93,57.105 C92.4,54.985 91.7766667,53.0383333 91.13,51.265 C90.5590101,49.6292491 89.6949142,48.1111512 88.58,46.785 C87.5030265,45.5548504 86.1725715,44.5723606 84.68,43.905 C82.8079886,43.1347462 80.7930134,42.7733462 78.77,42.845 C75.0884835,42.8234056 71.4354951,43.4915939 68,44.815 L92.52,105.455 C93.9716599,110.271693 98.3763226,113.592983 103.406514,113.663863 C108.436705,113.734743 112.9332,110.538878 114.52,105.765 L138.86,44.815 Z" id="Path"></path>
            <path d="M237.07,44.815 C235.61251,44.2288633 234.106848,43.7704729 232.57,43.445 C230.701014,43.0373254 228.792911,42.8364414 226.88,42.845 C225.063906,42.7930978 223.255589,43.1024151 221.56,43.755 C220.127416,44.3434183 218.865503,45.2821166 217.89,46.485 C216.821652,47.8137725 215.961802,49.2974338 215.34,50.885 C214.567759,52.7667002 213.900075,54.6896309 213.34,56.645 L202,86.225 L191.22,57.105 C190.62,54.985 189.996667,53.0383333 189.35,51.265 C188.77901,49.6292491 187.914914,48.1111512 186.8,46.785 C185.724635,45.5574004 184.39802,44.5752279 182.91,43.905 C181.037557,43.1362272 179.022904,42.774885 177,42.845 C173.309943,42.8314171 169.650051,43.509803 166.21,44.845 L190.73,105.485 C192.18166,110.301693 196.586323,113.622983 201.616514,113.693863 C206.646705,113.764743 211.1432,110.568878 212.73,105.795 L237.07,44.815 Z" id="Path"></path>
            <path d="M292,19.215 L311.21,19.215 L311.21,34.4450591 L299.66,34.4450591 C297.631205,34.452977 295.682769,33.6526272 294.245371,32.2208591 C292.807974,30.789091 292,28.8438104 292,26.815 L292,19.215 L292,19.215 Z" id="Path"></path>
            <path d="M309.23497,36.4400295 L328.44503,36.4400295 L328.44503,51.6700295 L316.86503,51.6700295 C314.836219,51.6700295 312.890939,50.8620557 311.45917,49.4246581 C310.027402,47.9872605 309.227053,46.0388242 309.23497,44.0100295 L309.23497,36.4100295 L309.23497,36.4400295 Z" id="Path" transform="translate(318.840000, 44.040030) rotate(-90.000000) translate(-318.840000, -44.040030) "></path>
            <path d="M326.46,19.205 L345.67,19.205 L345.67,34.435 L334.09,34.435 C329.876067,34.435 326.46,31.0189326 326.46,26.805 L326.46,19.205 L326.46,19.205 Z" id="Path" fill-opacity="0.6" transform="translate(336.065000, 26.820000) rotate(180.000000) translate(-336.065000, -26.820000) "></path>
            <path d="M309.235,2 L328.445,2 L328.445,17.22 L316.865,17.22 C312.651067,17.22 309.235,13.8039326 309.235,9.59 L309.235,2 Z" id="Path" fill-opacity="0.6" transform="translate(318.840000, 9.610000) rotate(90.000000) translate(-318.840000, -9.610000) "></path>
        </g>
    </g>
</svg>